<svg class="Navigation__logo_image" xmlns="http://www.w3.org/2000/svg" viewBox="0 0 145 45" data-reactid="17"><g fill="#fff" fill-rule="nonzero" data-reactid="18"><path d="M122.3 29.4c0 2.74.72 4.906 2.165 6.5 1.48 1.615 3.433 2.42 5.86 2.42 2.442 0 4.395-.795 5.857-2.39 1.462-1.596 2.194-3.725 2.194-6.39 0-2.664-.732-4.794-2.194-6.39-1.48-1.612-3.434-2.42-5.858-2.42-2.388 0-4.323.808-5.803 2.42-1.48 1.615-2.22 3.698-2.22 6.25m-6.386-.113c0-3.96 1.398-7.327 4.193-10.104 2.795-2.777 6.2-4.166 10.218-4.166 4.035 0 7.46 1.398 10.273 4.194 2.776 2.798 4.165 6.23 4.165 10.303 0 4.11-1.398 7.552-4.193 10.33-2.815 2.758-6.267 4.136-10.357 4.136-4.054 0-7.45-1.408-10.19-4.22-2.74-2.78-4.11-6.27-4.11-10.47M91.65 29.4c0 2.626.695 4.766 2.084 6.416 1.425 1.67 3.22 2.505 5.386 2.505 2.314 0 4.183-.804 5.61-2.42 1.424-1.67 2.137-3.79 2.137-6.36 0-2.57-.713-4.69-2.138-6.36-1.428-1.632-3.278-2.45-5.555-2.45-2.148 0-3.943.828-5.387 2.48-1.426 1.67-2.14 3.733-2.14 6.19zM106.48.297h6.275V43.19h-6.275v-2.87c-2.462 2.44-5.248 3.658-8.357 3.658-3.702 0-6.774-1.37-9.218-4.11-2.425-2.794-3.637-6.284-3.637-10.468 0-4.09 1.212-7.506 3.637-10.245 2.406-2.758 5.433-4.138 9.08-4.138 3.165 0 5.997 1.314 8.496 3.94V.297zM84.218 15.777L71.945 43.19h-6.247L77.97 15.778h6.248zm-7.192-11.4c0-1.106.398-2.063 1.194-2.87.796-.806 1.75-1.21 2.86-1.21 1.13 0 2.092.404 2.888 1.21.796.788 1.194 1.755 1.194 2.9 0 1.144-.398 2.12-1.194 2.926-.778.807-1.73 1.21-2.86 1.21s-2.092-.403-2.888-1.21c-.796-.806-1.194-1.79-1.194-2.955zM50.62 15.777l6.996 15.395 6.97-15.395h7.024l-14.05 29.3-13.938-29.3zM33.1 43.19h6.246V15.778H33.1V43.19zm-.946-38.81c0-1.107.397-2.064 1.194-2.87C34.142.703 35.096.3 36.208.3c1.127 0 2.09.403 2.886 1.21.796.788 1.194 1.754 1.194 2.898 0 1.145-.398 2.12-1.194 2.927-.777.807-1.73 1.21-2.86 1.21s-2.092-.403-2.887-1.21c-.798-.806-1.195-1.79-1.195-2.955zM6.386 29.4c0 2.626.694 4.766 2.082 6.416 1.426 1.67 3.22 2.505 5.387 2.505 2.314 0 4.183-.804 5.608-2.42 1.426-1.67 2.14-3.79 2.14-6.36 0-2.57-.714-4.69-2.14-6.36-1.425-1.632-3.276-2.45-5.553-2.45-2.147 0-3.942.828-5.386 2.48-1.426 1.67-2.138 3.733-2.138 6.19zM21.213.297h6.275V43.19h-6.275v-2.87c-2.462 2.44-5.248 3.658-8.358 3.658-3.702 0-6.774-1.37-9.218-4.11C1.212 37.075 0 33.585 0 29.4c0-4.09 1.212-7.506 3.637-10.245 2.406-2.758 5.433-4.138 9.08-4.138 3.165 0 5.997 1.314 8.496 3.94V.297z" data-reactid="19"></path></g></svg>
